#!OML:ASF H:\Male1\Project 1\Capture day 1\Session 1\Male1.ASF
:FULLY-SPECIFIED
:DEGREES
273
root -3.05953 14.9547 2.75962 185.987 70.7539 -172.738
lowerback 7.35398 1.30325 2.45271
upperback 5.1833 2.0948 -1.57144
thorax 1.38311 1.23229 -3.11898
lowerneck -9.99337 0.65174 3.86507
upperneck 13.9652 0.350617 0.250087
head 5.88048 0.444268 -0.521577
rclavicle -9.74045e-015 4.77083e-015
rhumerus -20.6032 4.38336 -80.5891
rradius 77.027
rwrist -28.0047
rhand -16.5765 -14.1326
rfingers 7.12502
rthumb 9.64393 -43.8918
lclavicle -9.74045e-015 4.77083e-015
lhumerus -25.7899 2.96581 73.8379
lradius 86.4648
lwrist 21.114
lhand -13.1246 30.9535
lfingers 7.12502
lthumb 12.9731 60.5302
rfemur 27.1534 8.70994 31.5006
rtibia -9.54166e-015
rfoot -11.7386 -19.5125
rtoes -34.339
lfemur -30.4147 -15.7818 -12.1049
ltibia 33.5697
lfoot -14.9756 18.1496
ltoes -8.65411
274
root -2.81998 14.9677 2.61052 185.1 71.6237 -173.579
lowerback 7.17421 1.41818 1.83478
upperback 5.19969 2.2127 -1.73611
thorax 1.48967 1.27969 -2.94181
lowerneck -9.83981 0.712087 3.55585
upperneck 13.671 0.429088 0.644034
head 5.76174 0.489454 -0.341376
rclavicle 1.59028e-015 -1.59028e-015
rhumerus -20.8234 4.20425 -80.6468
rradius 76.9522
rwrist -28.0115
rhand -16.6103 -14.2874
rfingers 7.12502
rthumb 9.61139 -44.0481
lclavicle 1.59028e-015 -1.59028e-015
lhumerus -25.6602 2.92449 73.7818
lradius 86.5275
lwrist 21.0763
lhand -13.3605 31.4206
lfingers 7.12502
lthumb 12.7456 61.0116
rfemur 28.1843 8.39788 30.3382
rtibia 2.8625e-014
rfoot -9.26953 -17.8956
rtoes -35.7344
lfemur -29.434 -15.0585 -13.0951
ltibia 34.371
lfoot -14.0811 18.2216
ltoes -5.01173
275
root -2.57504 14.984 2.46456 184.704 72.7233 -173.664
lowerback 7.23 1.65469 1.30483
upperback 5.21557 2.5028 -1.82612
thorax 1.47489 1.41363 -2.75436
lowerneck -9.74347 0.72951 3.63998
upperneck 13.7117 0.448703 0.624945
head 5.75874 0.503364 -0.359771
rclavicle 1.96797e-014 5.56597e-015
rhumerus -21.1676 3.80267 -80.7084
rradius 76.7642
rwrist -28.066
rhand -16.3233 -14.2974
rfingers 7.12502
rthumb 9.88825 -44.0452
lclavicle 1.96797e-014 5.56597e-015
lhumerus -25.4989 2.66988 73.781
lradius 86.3213
lwrist 21.0971
lhand -13.5641 31.7411
lfingers 7.12502
lthumb 12.5494 61.3442
rfemur 23.3011 8.21064 29.4084
rtibia 11.4896
rfoot -11.8311 -16.1235
rtoes -35.3238
lfemur -28.0495 -14.0073 -13.819
ltibia 34.9675
lfoot -14.1147 18.0422
ltoes -1.36663
276
root -2.32083 15.0104 2.30384 185.03 72.9241 -173.224
lowerback 6.96078 1.57121 1.18755
upperback 5.15014 2.37642 -1.83503
thorax 1.54359 1.34397 -2.6824
lowerneck -9.66583 0.782217 3.64827
upperneck 14.0179 0.519843 0.683126
head 5.84288 0.551298 -0.336713
rclavicle -1.35174e-014 7.15625e-015
rhumerus -21.5532 3.46182 -80.6841
rradius 76.6044
rwrist -28.2675
rhand -15.8072 -14.293
rfingers 7.12502
rthumb 10.3862 -44.0165
lclavicle -1.35174e-014 7.15625e-015
lhumerus -25.3895 2.29552 73.8727
lradius 85.869
lwrist 21.0851
lhand -13.9199 31.8938
lfingers 7.12502
lthumb 12.2064 61.5176
rfemur 20.3057 6.62572 28.2616
rtibia 18.6165
rfoot -11.3638 -13.6379
rtoes -33.6608
lfemur -26.9287 -13.3348 -14.3042
ltibia 35.3222
lfoot -14.2647 16.9463
ltoes -2.83349
277
root -2.06696 15.0416 2.15272 185.605 73.8146 -172.665
lowerback 6.67339 1.73086 0.886889
upperback 5.02155 2.56151 -1.86886
thorax 1.56753 1.42342 -2.54972
lowerneck -9.82725 0.840241 3.63182
upperneck 14.5492 0.580832 0.805272
head 6.03897 0.603194 -0.288509
rclavicle -6.2816e-014 2.14687e-014
rhumerus -21.9536 3.26359 -80.7172
rradius 76.4744
rwrist -28.5421
rhand -15.987 -14.1589
rfingers 7.12502
rthumb 10.2127 -43.891
lclavicle -6.2816e-014 2.14687e-014
lhumerus -25.2525 1.84856 73.8626
lradius 85.3032
lwrist 20.8463
lhand -13.1896 31.607
lfingers 7.12502
lthumb 12.9104 61.1876
rfemur 17.29 5.59737 27.0142
rtibia 25.2041
rfoot -9.33156 -11.2943
rtoes -31.4158
lfemur -25.5398 -12.1334 -14.8115
ltibia 35.4113
lfoot -14.7757 16.4822
ltoes -1.0934
278
root -1.82296 15.0644 2.00334 185.195 74.6766 -172.988
lowerback 6.64568 1.8683 0.462346
upperback 4.91839 2.71977 -2.0192
thorax 1.47187 1.49103 -2.47587
lowerneck -10.0485 0.973394 3.71888
upperneck 15.1866 0.720088 0.962835
head 6.2817 0.70538 -0.238099
rclavicle 4.01545e-014 -2.78299e-014
rhumerus -22.2632 3.0769 -80.827
rradius 76.2214
rwrist -28.9117
rhand -16.6753 -13.8898
rfingers 7.12502
rthumb 9.54865 -43.6535
lclavicle 4.01545e-014 -2.78299e-014
lhumerus -25.0959 1.41398 73.7492
lradius 84.762
lwrist 20.4144
lhand -10.696 30.7971
lfingers 7.12502
lthumb 15.3133 60.2102
rfemur 14.2286 4.65572 25.6066
rtibia 31.7571
rfoot -6.30833 -9.48149
rtoes -31.2284
lfemur -23.8464 -11.1683 -15.6379
ltibia 35.202
lfoot -15.0937 16.9109
ltoes -2.62758
279
root -1.58716 15.0918 1.85799 183.438 75.432 -174.613
lowerback 6.80069 1.94786 -0.228778
upperback 4.86371 2.79382 -2.25156
thorax 1.31247 1.51521 -2.34015
lowerneck -10.1879 1.11722 3.6603
upperneck 15.5964 0.879952 1.23784
head 6.43769 0.813433 -0.124683
rclavicle 6.91771e-014 -2.78299e-014
rhumerus -22.4044 2.85546 -80.8954
rradius 75.9965
rwrist -29.2181
rhand -16.8801 -13.6053
rfingers 7.12502
rthumb 9.35107 -43.3779
lclavicle 6.91771e-014 -2.78299e-014
lhumerus -24.8714 0.896083 73.6896
lradius 84.3416
lwrist 20.5555
lhand -13.591 30.9272
lfingers 7.12502
lthumb 12.5235 60.5319
rfemur 11.0673 4.06736 24.2127
rtibia 38.3132
rfoot -3.2321 -8.46463
rtoes -33.6591
lfemur -21.9753 -10.3316 -16.7698
ltibia 34.6784
lfoot -15.4489 17.1216
ltoes -3.14802
280
root -1.35746 15.1222 1.72071 180.187 75.8918 -177.854
lowerback 7.07031 1.93014 -1.25344
upperback 4.77876 2.71694 -2.56069
thorax 1.04243 1.45982 -2.09489
lowerneck -10.2699 1.27729 3.64598
upperneck 15.7785 1.07611 1.37278
head 6.51203 0.923371 -0.0608276
rclavicle -6.16232e-015 -1.98785e-014
rhumerus -22.5435 2.55753 -80.9406
rradius 75.9174
rwrist -29.4764
rhand -16.6093 -13.3456
rfingers 7.12502
rthumb 9.61233 -43.1063
lclavicle -6.16232e-015 -1.98785e-014
lhumerus -24.6577 0.213586 73.6657
lradius 84.1333
lwrist 21.4582
lhand -14.6784 31.2737
lfingers 7.12502
lthumb 11.4749 60.9396
rfemur 7.7215 3.6826 22.8377
rtibia 44.6587
rfoot -0.833533 -8.54494
rtoes -36.4315
lfemur -20.1359 -9.68343 -18.2043
ltibia 33.8369
lfoot -15.9674 17.0098
ltoes -3.41984
281
root -1.13165 15.1564 1.59267 176.707 76.049 -181.306
lowerback 7.32482 1.81523 -2.35351
upperback 4.81832 2.51113 -2.82229
thorax 0.90637 1.34301 -1.7467
lowerneck -10.3403 1.48995 3.67397
upperneck 15.7563 1.34773 1.42216
head 6.52045 1.05864 -0.0257586
rclavicle 5.96354e-015 3.33958e-014
rhumerus -22.3988 2.26674 -80.9577
rradius 75.7957
rwrist -29.7318
rhand -16.4875 -13.1566
rfingers 7.12502
rthumb 9.7298 -42.9119
lclavicle 5.96354e-015 3.33958e-014
lhumerus -24.2679 -0.127125 73.5414
lradius 83.9327
lwrist 21.3197
lhand -12.2798 31.2754
lfingers 7.12502
lthumb 13.7873 60.7985
rfemur 4.32833 3.2461 21.7254
rtibia 50.5815
rfoot 1.22957 -9.89642
rtoes -33.6594
lfemur -18.2215 -9.29708 -19.6169
ltibia 32.7336
lfoot -16.4541 16.9543
ltoes -4.19252
282
root -0.905107 15.1915 1.46653 172.929 76.1717 -184.926
lowerback 7.65723 1.69947 -3.43272
upperback 4.93668 2.30618 -3.1028
thorax 0.819183 1.23113 -1.43038
lowerneck -10.385 1.72462 3.73637
upperneck 15.7206 1.64431 1.4783
head 6.52064 1.20835 0.00788607
rclavicle -4.53229e-014 1.90833e-014
rhumerus -22.1302 2.11835 -81.0211
rradius 75.6086
rwrist -29.8111
rhand -16.6748 -12.9398
rfingers 7.12502
rthumb 9.54911 -42.7034
lclavicle -4.53229e-014 1.90833e-014
lhumerus -23.8276 -0.394831 73.3881
lradius 83.7742
lwrist 21.3137
lhand -12.2686 31.2818
lfingers 7.12502
lthumb 13.7981 60.8042
rfemur 1.15511 2.83267 20.7393
rtibia 55.826
rfoot 0.787452 -12.5665
rtoes -36.5112
lfemur -16.1179 -8.90332 -21.082
ltibia 31.5158
lfoot -16.6973 17.1241
ltoes -5.62087
283
root -0.680332 15.2206 1.33809 169.717 76.2923 -187.914
lowerback 7.99091 1.60367 -4.27553
upperback 5.08114 2.13729 -3.3298
thorax 0.770839 1.14138 -1.19224
lowerneck -10.3795 1.95066 3.84785
upperneck 15.6571 1.93733 1.45023
head 6.5045 1.35151 0.00563758
rclavicle -4.85035e-014 -4.77083e-015
rhumerus -21.8973 2.08415 -81.0299
rradius 75.4642
rwrist -29.8304
rhand -16.8817 -12.7419
rfingers 7.12502
rthumb 9.3495 -42.5145
lclavicle -4.85035e-014 -4.77083e-015
lhumerus -23.31 -0.611551 73.3297
lradius 83.5615
lwrist 21.4973
lhand -12.2401 31.2273
lfingers 7.12502
lthumb 13.8256 60.7478
rfemur -1.7738 2.45321 20.0255
rtibia 60.3197
rfoot -1.79422 -14.7205
rtoes -30.9197
lfemur -13.9916 -8.46233 -22.3691
ltibia 30.2987
lfoot -16.8077 17.3599
ltoes -7.3982
284
root -0.455848 15.24 1.21009 168.063 76.3576 -189.357
lowerback 8.25649 1.47288 -4.80745
upperback 5.22709 1.93324 -3.35643
thorax 0.767239 1.03303 -0.9145
lowerneck -10.3651 2.14518 3.8719
upperneck 15.5761 2.21196 1.35611
head 6.4806 1.47422 -0.00539439
rclavicle -1.59028e-014 -3.97569e-015
rhumerus -21.6436 2.08542 -80.8486
rradius 75.3278
rwrist -29.7892
rhand -16.8629 -12.6497
rfingers 7.12502
rthumb 9.36765 -42.4216
lclavicle -1.59028e-014 -3.97569e-015
lhumerus -22.7947 -0.740162 73.4953
lradius 83.2583
lwrist 21.5693
lhand -12.4661 30.9883
lfingers 7.12502
lthumb 13.6078 60.5236
rfemur -4.74928 1.9356 19.8547
rtibia 63.7409
rfoot -4.21237 -16.6837
rtoes -27.2565
lfemur -12.0523 -8.241 -23.2328
ltibia 29.2808
lfoot -17.145 17.5681
ltoes -8.39457
285
root -0.229334 15.2643 1.08523 167.638 76.5162 -189.69
lowerback 8.41632 1.33256 -5.06008
upperback 5.29681 1.72547 -3.28827
thorax 0.748682 0.923424 -0.690941
lowerneck -10.3547 2.30796 3.90855
upperneck 15.5889 2.44469 1.24697
head 6.48751 1.57886 -0.0260479
rclavicle -2.78299e-015 -1.27222e-014
rhumerus -21.3827 2.08414 -80.6435
rradius 75.1171
rwrist -29.6763
rhand -16.6672 -12.5722
rfingers 7.12502
rthumb 9.55645 -42.3355
lclavicle -2.78299e-015 -1.27222e-014
lhumerus -22.3765 -0.740113 73.7145
lradius 82.9628
lwrist 21.462
lhand -12.7338 30.8574
lfingers 7.12502
lthumb 13.3498 60.4098
rfemur -7.7551 1.58418 20.1006
rtibia 66.2961
rfoot -6.66576 -17.9767
rtoes -23.5272
lfemur -10.4018 -8.16466 -23.7489
ltibia 28.5223
lfoot -17.8016 17.7447
ltoes -8.04962
286
root -0.00188578 15.2798 0.962653 168.118 76.8126 -189.242
lowerback 8.48003 1.28196 -4.97939
upperback 5.26471 1.6522 -3.24626
thorax 0.681889 0.887376 -0.688765
lowerneck -10.6223 2.31847 4.3342
upperneck 16.0865 2.44488 0.821527
head 6.70499 1.57961 -0.224096
rclavicle -3.55825e-014 -1.43125e-014
rhumerus -21.2971 1.80761 -80.5168
rradius 74.9259
rwrist -29.7087
rhand -16.4589 -12.3658
rfingers 7.12502
rthumb 9.75743 -42.1197
lclavicle -3.55825e-014 -1.43125e-014
lhumerus -22.0205 -0.940228 73.9175
lradius 82.6738
lwrist 21.2312
lhand -12.3831 30.9315
lfingers 7.12502
lthumb 13.6878 60.4614
rfemur -10.8877 1.55322 20.6698
rtibia 67.8239
rfoot -8.10619 -18.8348
rtoes -24.0115
lfemur -9.09509 -8.01802 -24.0081
ltibia 28.0839
lfoot -18.6472 17.8068
ltoes -7.0895
